<svg id="visual" viewBox="0 0 900 200" width="900" height="200" xmlns="http://www.w3.org/2000/svg" xmlns:xlink="http://www.w3.org/1999/xlink" version="1.1"><path d="M0 153L11.5 150.8C23 148.7 46 144.3 69 145.5C92 146.7 115 153.3 138.2 153C161.3 152.7 184.7 145.3 207.8 141.2C231 137 254 136 277 134C300 132 323 129 346 127C369 125 392 124 415.2 131.3C438.3 138.7 461.7 154.3 484.8 162C508 169.7 531 169.3 554 163.2C577 157 600 145 623 138.8C646 132.7 669 132.3 692.2 135.3C715.3 138.3 738.7 144.7 761.8 150.2C785 155.7 808 160.3 831 161C854 161.7 877 158.3 888.5 156.7L900 155L900 0L888.5 0C877 0 854 0 831 0C808 0 785 0 761.8 0C738.7 0 715.3 0 692.2 0C669 0 646 0 623 0C600 0 577 0 554 0C531 0 508 0 484.8 0C461.7 0 438.3 0 415.2 0C392 0 369 0 346 0C323 0 300 0 277 0C254 0 231 0 207.8 0C184.7 0 161.3 0 138.2 0C115 0 92 0 69 0C46 0 23 0 11.5 0L0 0Z" fill="#fcf7f8"></path><path d="M0 114L11.5 111.2C23 108.3 46 102.7 69 104C92 105.3 115 113.7 138.2 119.8C161.3 126 184.7 130 207.8 130.3C231 130.7 254 127.3 277 120.7C300 114 323 104 346 100.8C369 97.7 392 101.3 415.2 102.7C438.3 104 461.7 103 484.8 106.7C508 110.3 531 118.7 554 117.3C577 116 600 105 623 100.8C646 96.7 669 99.3 692.2 106C715.3 112.7 738.7 123.3 761.8 121.8C785 120.3 808 106.7 831 103.8C854 101 877 109 888.5 113L900 117L900 0L888.5 0C877 0 854 0 831 0C808 0 785 0 761.8 0C738.7 0 715.3 0 692.2 0C669 0 646 0 623 0C600 0 577 0 554 0C531 0 508 0 484.8 0C461.7 0 438.3 0 415.2 0C392 0 369 0 346 0C323 0 300 0 277 0C254 0 231 0 207.8 0C184.7 0 161.3 0 138.2 0C115 0 92 0 69 0C46 0 23 0 11.5 0L0 0Z" fill="#c6c2c3"></path><path d="M0 106L11.5 100.3C23 94.7 46 83.3 69 79.7C92 76 115 80 138.2 82.3C161.3 84.7 184.7 85.3 207.8 84.3C231 83.3 254 80.7 277 83.8C300 87 323 96 346 98.2C369 100.3 392 95.7 415.2 89.5C438.3 83.3 461.7 75.7 484.8 73.2C508 70.7 531 73.3 554 75.3C577 77.3 600 78.7 623 81.5C646 84.3 669 88.7 692.2 89.7C715.3 90.7 738.7 88.3 761.8 84.7C785 81 808 76 831 77.5C854 79 877 87 888.5 91L900 95L900 0L888.5 0C877 0 854 0 831 0C808 0 785 0 761.8 0C738.7 0 715.3 0 692.2 0C669 0 646 0 623 0C600 0 577 0 554 0C531 0 508 0 484.8 0C461.7 0 438.3 0 415.2 0C392 0 369 0 346 0C323 0 300 0 277 0C254 0 231 0 207.8 0C184.7 0 161.3 0 138.2 0C115 0 92 0 69 0C46 0 23 0 11.5 0L0 0Z" fill="#929090"></path><path d="M0 62L11.5 58.8C23 55.7 46 49.3 69 49C92 48.7 115 54.3 138.2 55C161.3 55.7 184.7 51.3 207.8 51C231 50.7 254 54.3 277 59.7C300 65 323 72 346 75.3C369 78.7 392 78.3 415.2 75C438.3 71.7 461.7 65.3 484.8 61.2C508 57 531 55 554 58.2C577 61.3 600 69.7 623 72.7C646 75.7 669 73.3 692.2 71.5C715.3 69.7 738.7 68.3 761.8 66.2C785 64 808 61 831 60C854 59 877 60 888.5 60.5L900 61L900 0L888.5 0C877 0 854 0 831 0C808 0 785 0 761.8 0C738.7 0 715.3 0 692.2 0C669 0 646 0 623 0C600 0 577 0 554 0C531 0 508 0 484.8 0C461.7 0 438.3 0 415.2 0C392 0 369 0 346 0C323 0 300 0 277 0C254 0 231 0 207.8 0C184.7 0 161.3 0 138.2 0C115 0 92 0 69 0C46 0 23 0 11.5 0L0 0Z" fill="#626161"></path><path d="M0 17L11.5 22.2C23 27.3 46 37.7 69 38.2C92 38.7 115 29.3 138.2 28.7C161.3 28 184.7 36 207.8 37.2C231 38.3 254 32.7 277 31.5C300 30.3 323 33.7 346 33.5C369 33.3 392 29.7 415.2 31.2C438.3 32.7 461.7 39.3 484.8 41.5C508 43.7 531 41.3 554 38.3C577 35.3 600 31.7 623 29C646 26.3 669 24.7 692.2 24.5C715.3 24.3 738.7 25.7 761.8 26.3C785 27 808 27 831 28.8C854 30.7 877 34.3 888.5 36.2L900 38L900 0L888.5 0C877 0 854 0 831 0C808 0 785 0 761.8 0C738.7 0 715.3 0 692.2 0C669 0 646 0 623 0C600 0 577 0 554 0C531 0 508 0 484.8 0C461.7 0 438.3 0 415.2 0C392 0 369 0 346 0C323 0 300 0 277 0C254 0 231 0 207.8 0C184.7 0 161.3 0 138.2 0C115 0 92 0 69 0C46 0 23 0 11.5 0L0 0Z" fill="#353535"></path></svg>