<svg id="visual" viewBox="0 0 900 200" width="900" height="200" xmlns="http://www.w3.org/2000/svg" xmlns:xlink="http://www.w3.org/1999/xlink" version="1.1"><path d="M0 131L11.5 135.7C23 140.3 46 149.7 69 151C92 152.3 115 145.7 138.2 139.5C161.3 133.3 184.7 127.7 207.8 129C231 130.3 254 138.7 277 143.8C300 149 323 151 346 154.5C369 158 392 163 415.2 157.3C438.3 151.7 461.7 135.3 484.8 131.2C508 127 531 135 554 138.3C577 141.7 600 140.3 623 140.7C646 141 669 143 692.2 145.7C715.3 148.3 738.7 151.7 761.8 147.7C785 143.7 808 132.3 831 131.7C854 131 877 141 888.5 146L900 151L900 0L888.5 0C877 0 854 0 831 0C808 0 785 0 761.8 0C738.7 0 715.3 0 692.2 0C669 0 646 0 623 0C600 0 577 0 554 0C531 0 508 0 484.8 0C461.7 0 438.3 0 415.2 0C392 0 369 0 346 0C323 0 300 0 277 0C254 0 231 0 207.8 0C184.7 0 161.3 0 138.2 0C115 0 92 0 69 0C46 0 23 0 11.5 0L0 0Z" fill="#fcf7f8"></path><path d="M0 125L11.5 126C23 127 46 129 69 127.8C92 126.7 115 122.3 138.2 120.5C161.3 118.7 184.7 119.3 207.8 120.5C231 121.7 254 123.3 277 120C300 116.7 323 108.3 346 103.5C369 98.7 392 97.3 415.2 101.7C438.3 106 461.7 116 484.8 117.5C508 119 531 112 554 107.2C577 102.3 600 99.7 623 105.3C646 111 669 125 692.2 132C715.3 139 738.7 139 761.8 136.8C785 134.7 808 130.3 831 126.5C854 122.7 877 119.3 888.5 117.7L900 116L900 0L888.5 0C877 0 854 0 831 0C808 0 785 0 761.8 0C738.7 0 715.3 0 692.2 0C669 0 646 0 623 0C600 0 577 0 554 0C531 0 508 0 484.8 0C461.7 0 438.3 0 415.2 0C392 0 369 0 346 0C323 0 300 0 277 0C254 0 231 0 207.8 0C184.7 0 161.3 0 138.2 0C115 0 92 0 69 0C46 0 23 0 11.5 0L0 0Z" fill="#c6c2c3"></path><path d="M0 95L11.5 93.8C23 92.7 46 90.3 69 88.7C92 87 115 86 138.2 84.5C161.3 83 184.7 81 207.8 82C231 83 254 87 277 91.5C300 96 323 101 346 97.3C369 93.7 392 81.3 415.2 79.5C438.3 77.7 461.7 86.3 484.8 86.7C508 87 531 79 554 81.5C577 84 600 97 623 97.7C646 98.3 669 86.7 692.2 85.7C715.3 84.7 738.7 94.3 761.8 97.2C785 100 808 96 831 91.2C854 86.3 877 80.7 888.5 77.8L900 75L900 0L888.5 0C877 0 854 0 831 0C808 0 785 0 761.8 0C738.7 0 715.3 0 692.2 0C669 0 646 0 623 0C600 0 577 0 554 0C531 0 508 0 484.8 0C461.7 0 438.3 0 415.2 0C392 0 369 0 346 0C323 0 300 0 277 0C254 0 231 0 207.8 0C184.7 0 161.3 0 138.2 0C115 0 92 0 69 0C46 0 23 0 11.5 0L0 0Z" fill="#929090"></path><path d="M0 61L11.5 60.7C23 60.3 46 59.7 69 60.7C92 61.7 115 64.3 138.2 64C161.3 63.7 184.7 60.3 207.8 57.7C231 55 254 53 277 52.2C300 51.3 323 51.7 346 51.2C369 50.7 392 49.3 415.2 52.2C438.3 55 461.7 62 484.8 63.3C508 64.7 531 60.3 554 60.8C577 61.3 600 66.7 623 64.7C646 62.7 669 53.3 692.2 53.8C715.3 54.3 738.7 64.7 761.8 64.7C785 64.7 808 54.3 831 49.2C854 44 877 44 888.5 44L900 44L900 0L888.5 0C877 0 854 0 831 0C808 0 785 0 761.8 0C738.7 0 715.3 0 692.2 0C669 0 646 0 623 0C600 0 577 0 554 0C531 0 508 0 484.8 0C461.7 0 438.3 0 415.2 0C392 0 369 0 346 0C323 0 300 0 277 0C254 0 231 0 207.8 0C184.7 0 161.3 0 138.2 0C115 0 92 0 69 0C46 0 23 0 11.5 0L0 0Z" fill="#626161"></path><path d="M0 19L11.5 23.3C23 27.7 46 36.3 69 39.8C92 43.3 115 41.7 138.2 39.8C161.3 38 184.7 36 207.8 34.3C231 32.7 254 31.3 277 28.7C300 26 323 22 346 24.7C369 27.3 392 36.7 415.2 40.5C438.3 44.3 461.7 42.7 484.8 38C508 33.3 531 25.7 554 22.7C577 19.7 600 21.3 623 25.8C646 30.3 669 37.7 692.2 37.2C715.3 36.7 738.7 28.3 761.8 27.7C785 27 808 34 831 36C854 38 877 35 888.5 33.5L900 32L900 0L888.5 0C877 0 854 0 831 0C808 0 785 0 761.8 0C738.7 0 715.3 0 692.2 0C669 0 646 0 623 0C600 0 577 0 554 0C531 0 508 0 484.8 0C461.7 0 438.3 0 415.2 0C392 0 369 0 346 0C323 0 300 0 277 0C254 0 231 0 207.8 0C184.7 0 161.3 0 138.2 0C115 0 92 0 69 0C46 0 23 0 11.5 0L0 0Z" fill="#353535"></path></svg>